<svg xmlns="http://www.w3.org/2000/svg" viewBox="0 0 1121.4 312.96"><defs><style>.cls-1,.cls-3{fill:#fff;}.cls-2{fill:#3eb1f3;}.cls-3{font-size:72px;font-family:Roboto-Italic, Roboto;font-style:italic;letter-spacing:0.2em;}</style></defs><title>Fichier 28</title><g id="Calque_2" data-name="Calque 2"><g id="Layer_1" data-name="Layer 1"><path class="cls-1" d="M902.5,150.93q0-14.75,3.62-24.49a34.64,34.64,0,0,1,11.12-15.62A48.76,48.76,0,0,1,936,102.2a173.65,173.65,0,0,1,26.74-4l80.46-5.75q13.24-1,20.86-3.24t11.5-6.38a19,19,0,0,0,4.87-10.12,92.3,92.3,0,0,0,1-14.74A92.75,92.75,0,0,0,1080,41a24.21,24.21,0,0,0-5.5-11.87,24.66,24.66,0,0,0-11.5-6.87Q1055.68,20,1043.43,20h-76a135.92,135.92,0,0,0-17.37,1,28.1,28.1,0,0,0-13,4.87q-5.39,3.88-8.13,11.62t-2.74,21.24v10h-23v-17q0-28.49,15.74-40.1T966.72,0h76.46q19.48,0,31.48,4.25t18.62,12a40.9,40.9,0,0,1,8.87,18.62,120.59,120.59,0,0,1,2.25,24.36q0,18-3.75,28.36a29.88,29.88,0,0,1-12.74,15.87q-9,5.51-24,7.5t-37.23,3.49l-37.49,2.5q-21.48,1.5-34.23,3t-19.24,4.5q-6.5,3-8.37,8.24t-1.87,14.25v16H1106.9v20H902.5Z"/><path class="cls-2" d="M274,35.91H16a16,16,0,0,1-16-16H0a16,16,0,0,1,16-16H274a16,16,0,0,1,16,16h0A16,16,0,0,1,274,35.91Z"/><path class="cls-2" d="M274,182.91H16a16,16,0,0,1-16-16H0a16,16,0,0,1,16-16H274a16,16,0,0,1,16,16h0A16,16,0,0,1,274,182.91Z"/><path class="cls-2" d="M274,109.91H16a16,16,0,0,1-16-16H0a16,16,0,0,1,16-16H274a16,16,0,0,1,16,16h0A16,16,0,0,1,274,109.91Z"/><path class="cls-1" d="M573.91,2h38.23l105.7,151.67L823.54,2h38.23V182.91H837.28V24h-.5L726.59,182.91H709.1L598.9,24h-.5V182.91H573.91Z"/><path class="cls-1" d="M537.93,25.74q-3.49-9.75-10-15a35.44,35.44,0,0,0-16.25-7,124.66,124.66,0,0,0-22-1.75H340.84V22H484a78.93,78.93,0,0,1,14.12,1.12,25.89,25.89,0,0,1,10.37,4.13,17.9,17.9,0,0,1,6.27,8.24c1.42,3.5,2,7.92,2,13.25V66c0,9.49-2.62,16.28-8,20.11S495.78,92,486,92H340.84v91h24v-71H485c13.32,0,23.74-1.37,31.23-3.87s13.12-6.35,16.87-11.43,6.08-11.44,7-19a224.06,224.06,0,0,0,1.37-26.38C541.43,40.75,540.26,32.23,537.93,25.74Z"/><rect class="cls-2" y="266" width="701" height="6"/><text class="cls-3" transform="translate(760.16 293.45)">runtime</text></g></g></svg>