<svg xmlns="http://www.w3.org/2000/svg" viewBox="0 0 1107.43 183"><defs><style>.cls-1{fill:#fff;}</style></defs><title>Fichier 26</title><g id="Calque_2" data-name="Calque 2"><g id="Layer_1" data-name="Layer 1"><path class="cls-1" d="M902.93,151q0-14.75,3.63-24.5a34.59,34.59,0,0,1,11.12-15.62,48.82,48.82,0,0,1,18.75-8.63,173.8,173.8,0,0,1,26.75-4l80.5-5.75q13.24-1,20.88-3.25t11.5-6.37a19.06,19.06,0,0,0,4.87-10.13,91.27,91.27,0,0,0,1-14.75,92.94,92.94,0,0,0-1.37-17,24.29,24.29,0,0,0-5.5-11.88,24.66,24.66,0,0,0-11.5-6.87Q1056.18,20,1043.93,20h-76a135.92,135.92,0,0,0-17.37,1,28,28,0,0,0-13,4.88q-5.38,3.87-8.13,11.62t-2.75,21.25v10h-23v-17q0-28.5,15.75-40.13T967.18,0h76.5q19.5,0,31.5,4.25t18.63,12a40.89,40.89,0,0,1,8.87,18.63,120.62,120.62,0,0,1,2.25,24.37q0,18-3.75,28.37a29.87,29.87,0,0,1-12.75,15.88q-9,5.5-24,7.5t-37.25,3.5l-37.5,2.5q-21.49,1.5-34.25,3t-19.25,4.5q-6.49,3-8.37,8.25T925.93,147v16h181.5v20H902.93Z"/><path class="cls-1" d="M574.19,2h38.25L718.19,153.75,823.94,2h38.25V183h-24.5V24h-.5L726.94,183h-17.5L599.19,24h-.5V183h-24.5Z"/><path class="cls-1" d="M538.19,25.75q-3.51-9.75-10-15a35.34,35.34,0,0,0-16.25-7,125.94,125.94,0,0,0-22-1.75H341V22H484.19a79.79,79.79,0,0,1,14.12,1.12,26.08,26.08,0,0,1,10.38,4.13A18,18,0,0,1,515,35.5c1.41,3.5,2,7.92,2,13.25V66c0,9.5-2.62,16.29-8,20.12S496,92,486.19,92H341v91h24V112H485.19c13.33,0,23.75-1.38,31.25-3.88s13.12-6.35,16.87-11.43,6.08-11.45,7-19a222,222,0,0,0,1.38-26.39Q541.69,35.52,538.19,25.75Z"/><path class="cls-1" d="M274,36H16A16,16,0,0,1,0,20H0A16,16,0,0,1,16,4H274a16,16,0,0,1,16,16h0A16,16,0,0,1,274,36Z"/><path class="cls-1" d="M274,183H16A16,16,0,0,1,0,167H0a16,16,0,0,1,16-16H274a16,16,0,0,1,16,16h0A16,16,0,0,1,274,183Z"/><path class="cls-1" d="M274,110H16A16,16,0,0,1,0,94H0A16,16,0,0,1,16,78H274a16,16,0,0,1,16,16h0A16,16,0,0,1,274,110Z"/></g></g></svg>