<?xml version="1.0" encoding="UTF-8"?>
<svg width="1108px" height="183px" viewBox="0 0 1108 183" version="1.1" xmlns="http://www.w3.org/2000/svg" xmlns:xlink="http://www.w3.org/1999/xlink">
    <!-- Generator: Sketch 48.2 (47327) - http://www.bohemiancoding.com/sketch -->
    <title>enterprise_docs</title>
    <desc>Created with Sketch.</desc>
    <defs></defs>
    <g id="Page-1" stroke="none" stroke-width="1" fill="none" fill-rule="evenodd">
        <g id="enterprise_docs" fill-rule="nonzero">
            <path d="M902.93,151 C902.93,141.166667 904.14,133 906.56,126.5 C908.720699,120.349495 912.57548,114.934776 917.68,110.88 C923.243503,106.699884 929.636364,103.757463 936.43,102.25 C945.229222,100.223815 954.172965,98.8864329 963.18,98.25 L1043.68,92.5 C1052.50667,91.8333333 1059.46667,90.75 1064.56,89.25 C1069.65333,87.75 1073.48667,85.6266667 1076.06,82.88 C1078.66469,80.0696269 1080.36183,76.5394287 1080.93,72.75 C1081.66164,67.8684634 1081.99607,62.9356186 1081.93,58 C1081.99533,52.303321 1081.53674,46.6127005 1080.56,41 C1079.84847,36.6112699 1077.94604,32.5020117 1075.06,29.12 C1071.934,25.8127533 1067.9538,23.4350175 1063.56,22.25 C1058.64,20.75 1052.09667,20 1043.93,20 L967.93,20 C962.124585,19.9620296 956.322702,20.2960471 950.56,21 C945.885658,21.5093258 941.414849,23.1875987 937.56,25.88 C933.973333,28.46 931.263333,32.3333333 929.43,37.5 C927.596667,42.6666667 926.68,49.75 926.68,58.75 L926.68,68.75 L903.68,68.75 L903.68,51.75 C903.68,32.75 908.93,19.3733333 919.43,11.62 C929.93,3.86666667 945.846667,-0.00666666667 967.18,-6.03961325e-14 L1043.68,-6.03961325e-14 C1056.68,-6.03961325e-14 1067.18,1.41666667 1075.18,4.25 C1083.18,7.08333333 1089.39,11.0833333 1093.81,16.25 C1098.31065,21.5996329 1101.36455,28.0138498 1102.68,34.88 C1104.2543,42.90604 1105.00818,51.0713924 1104.93,59.25 C1104.93,71.25 1103.68,80.7066667 1101.18,87.62 C1098.9214,94.2434426 1094.40897,99.8636291 1088.43,103.5 C1082.43,107.166667 1074.43,109.666667 1064.43,111 C1054.43,112.333333 1042.01333,113.5 1027.18,114.5 L989.68,117 C975.353333,118 963.936667,119 955.43,120 C946.923333,121 940.506667,122.5 936.18,124.5 C931.853333,126.5 929.063333,129.25 927.81,132.75 C926.556667,136.25 925.93,141 925.93,147 L925.93,163 L1107.43,163 L1107.43,183 L902.93,183 L902.93,151 Z" id="Shape" fill="#FFFFFF"></path>
            <polygon id="Shape" fill="#FFFFFF" points="574.19 2 612.44 2 718.19 153.75 823.94 2 862.19 2 862.19 183 837.69 183 837.69 24 837.19 24 726.94 183 709.44 183 599.19 24 598.69 24 598.69 183 574.19 183"></polygon>
            <path d="M538.19,25.75 C535.85,19.25 532.516667,14.25 528.19,10.75 C523.454524,7.07650496 517.862598,4.6676756 511.94,3.75 C504.672005,2.52401271 497.310414,1.93843159 489.94,2 L341,2 L341,22 L484.19,22 C488.920562,21.9540044 493.645843,22.3288142 498.31,23.12 C502.027695,23.7307564 505.568927,25.1397437 508.69,27.25 C511.558287,29.3202378 513.753005,32.1897191 515,35.5 C516.41,39 517,43.42 517,48.75 L517,66 C517,75.5 514.38,82.29 509,86.12 C503.62,89.95 496,92 486.19,92 L341,92 L341,183 L365,183 L365,112 L485.19,112 C498.52,112 508.94,110.62 516.44,108.12 C523.94,105.62 529.56,101.77 533.31,96.69 C537.06,91.61 539.39,85.24 540.31,77.69 C541.293618,68.9285401 541.754434,60.1162651 541.69,51.3 C541.69,40.78 540.523333,32.2633333 538.19,25.75 Z" id="Shape" fill="#FFFFFF"></path>
            <path d="M274,36 L16,36 C7.163444,36 1.082166e-15,28.836556 0,20 C-1.082166e-15,11.163444 7.163444,4 16,4 L274,4 C282.836556,4 290,11.163444 290,20 C290,28.836556 282.836556,36 274,36 Z" id="Shape" fill="#7F86F5"></path>
            <path d="M274,183 L16,183 C7.163444,183 1.082166e-15,175.836556 0,167 C-1.082166e-15,158.163444 7.163444,151 16,151 L274,151 C282.836556,151 290,158.163444 290,167 C290,175.836556 282.836556,183 274,183 Z" id="Shape" fill="#7F86F5"></path>
            <path d="M274,110 L16,110 C7.163444,110 1.082166e-15,102.836556 0,94 C-1.082166e-15,85.163444 7.163444,78 16,78 L274,78 C282.836556,78 290,85.163444 290,94 C290,102.836556 282.836556,110 274,110 Z" id="Shape" fill="#7F86F5"></path>
        </g>
    </g>
</svg>