<?xml version="1.0" encoding="UTF-8"?>
<svg width="197px" height="33px" viewBox="0 0 197 33" version="1.1" xmlns="http://www.w3.org/2000/svg" xmlns:xlink="http://www.w3.org/1999/xlink">
    <!-- Generator: Sketch 48.2 (47327) - http://www.bohemiancoding.com/sketch -->
    <title>logo</title>
    <desc>Created with Sketch.</desc>
    <defs></defs>
    <g id="Page-1" stroke="none" stroke-width="1" fill="none" fill-rule="evenodd">
        <g id="logo">
            <g id="pm2-docs" transform="translate(149.000000, 7.000000)" fill-rule="nonzero">
                <g id="Group-2" transform="translate(-0.000000, 0.000000)">
                    <rect id="Rectangle-4" fill="#2D3A4B" x="0" y="0" width="48" height="20" rx="2"></rect>
                    <path d="M11.32,12.536 C11.32,12.8453349 11.2560006,13.1013323 11.128,13.304 C11.0319995,13.4426674 10.8613346,13.6399987 10.616,13.896 C10.3706654,14.1520013 10.1786674,14.3226662 10.04,14.408 C9.773332,14.5786675 9.50133472,14.664 9.224,14.664 L5,14.664 L5,5.064 L9.224,5.064 C9.52266816,5.064 9.79466544,5.1439992 10.04,5.304 C10.1786674,5.38933376 10.3706654,5.56266536 10.616,5.824 C10.8613346,6.08533464 11.0319995,6.29066592 11.128,6.44 C11.2560006,6.64266768 11.32,6.89866512 11.32,7.208 L11.32,12.536 Z M10.392,7.24 C10.392,7.14399952 10.3760002,7.06400032 10.344,7 C10.2479995,6.81866576 10.0933344,6.62400104 9.88,6.416 C9.6666656,6.20799896 9.49066736,6.07200032 9.352,6.008 C9.2986664,5.97599984 9.22933376,5.96 9.144,5.96 L5.928,5.96 L5.928,13.768 L9.144,13.768 C9.22933376,13.768 9.2986664,13.7520002 9.352,13.72 C9.49066736,13.6559997 9.6666656,13.5173344 9.88,13.304 C10.0933344,13.0906656 10.2479995,12.8933342 10.344,12.712 C10.3760002,12.6479997 10.392,12.578667 10.392,12.504 L10.392,7.24 Z M22.472001,12.6 C22.472001,12.9093349 22.4026683,13.1706656 22.264001,13.384 C22.1680005,13.5226674 21.9973355,13.7199987 21.752001,13.976 C21.5066664,14.2320013 21.3146683,14.4026662 21.176001,14.488 C20.909333,14.6586675 20.6320024,14.744 20.344001,14.744 L17.816001,14.744 C17.5386662,14.744 17.266669,14.6586675 17.000001,14.488 C16.8613336,14.4026662 16.6666689,14.2320013 16.416001,13.976 C16.165333,13.7199987 15.9920014,13.5226674 15.896001,13.384 C15.7680003,13.1813323 15.704001,12.9200016 15.704001,12.6 L15.704001,7.16 C15.704001,6.8399984 15.7680003,6.57866768 15.896001,6.376 C15.9920014,6.23733264 16.165333,6.03733464 16.416001,5.776 C16.6666689,5.51466536 16.8613336,5.34133376 17.000001,5.256 C17.266669,5.08533248 17.5386662,5 17.816001,5 L20.344001,5 C20.6320024,5 20.909333,5.08533248 21.176001,5.256 C21.3146683,5.34133376 21.5066664,5.51199872 21.752001,5.768 C21.9973355,6.02400128 22.1680005,6.22666592 22.264001,6.376 C22.4026683,6.5893344 22.472001,6.85066512 22.472001,7.16 L22.472001,12.6 Z M21.544001,12.584 L21.544001,7.192 C21.544001,7.09599952 21.5280011,7.01600032 21.496001,6.952 C21.4000005,6.77066576 21.2426687,6.5733344 21.024001,6.36 C20.8053332,6.1466656 20.6266683,6.00800032 20.488001,5.944 C20.4346674,5.91199984 20.3653347,5.896 20.280001,5.896 L17.896001,5.896 C17.8106672,5.896 17.7413346,5.91199984 17.688001,5.944 C17.5493336,6.00800032 17.3733354,6.1466656 17.160001,6.36 C16.9466666,6.5733344 16.7920014,6.77066576 16.696001,6.952 C16.6533341,7.03733376 16.632001,7.11733296 16.632001,7.192 L16.632001,12.584 C16.632001,12.6373336 16.6533341,12.7066662 16.696001,12.792 C16.7920014,12.9733342 16.9466666,13.1706656 17.160001,13.384 C17.3733354,13.5973344 17.5493336,13.7359997 17.688001,13.8 C17.7413346,13.8320002 17.8106672,13.848 17.896001,13.848 L20.280001,13.848 C20.3760014,13.848 20.4453341,13.8320002 20.488001,13.8 C20.6266683,13.7359997 20.8053332,13.5973344 21.024001,13.384 C21.2426687,13.1706656 21.4000005,12.9733342 21.496001,12.792 C21.5280011,12.7279997 21.544001,12.658667 21.544001,12.584 Z M33.2080019,12.856 C33.1333349,13.0266675 33.0106694,13.2346654 32.8400019,13.48 C32.4880001,13.9600024 32.1573368,14.295999 31.8480019,14.488 C31.5813339,14.6586675 31.3093366,14.744 31.0320019,14.744 L28.9200019,14.744 C28.6320005,14.744 28.3546699,14.6586675 28.0880019,14.488 C27.9493345,14.4026662 27.7573365,14.2320013 27.5120019,13.976 C27.2666673,13.7199987 27.0960024,13.5226674 27.0000019,13.384 C26.8613345,13.1706656 26.7920019,12.9146682 26.7920019,12.616 L26.7920019,7.144 C26.7920019,6.84533184 26.8613345,6.5893344 27.0000019,6.376 C27.0960024,6.22666592 27.2666673,6.02400128 27.5120019,5.768 C27.7573365,5.51199872 27.9493345,5.34133376 28.0880019,5.256 C28.3546699,5.08533248 28.6266672,5 28.9040019,5 L31.0320019,5 C31.3093366,5 31.5813339,5.08533248 31.8480019,5.256 C32.1573368,5.44800096 32.4880001,5.7839976 32.8400019,6.264 C33.0106694,6.50933456 33.1333349,6.71733248 33.2080019,6.888 L32.2800019,7.16 C32.1840014,6.93599888 32.024003,6.69866792 31.8000019,6.448 C31.5760008,6.19733208 31.3786694,6.02933376 31.2080019,5.944 C31.1546683,5.91199984 31.0800024,5.896 30.9840019,5.896 L28.9840019,5.896 C28.8986681,5.896 28.8293355,5.91199984 28.7760019,5.944 C28.6373345,6.00800032 28.4586697,6.1466656 28.2400019,6.36 C28.0213341,6.5733344 27.8640024,6.77066576 27.7680019,6.952 C27.7360017,7.01600032 27.7200019,7.09066624 27.7200019,7.176 L27.7200019,12.584 C27.7200019,12.658667 27.7360017,12.7279997 27.7680019,12.792 C27.8640024,12.9733342 28.0213341,13.1706656 28.2400019,13.384 C28.4586697,13.5973344 28.6373345,13.7359997 28.7760019,13.8 C28.8293355,13.8320002 28.8986681,13.848 28.9840019,13.848 L30.9840019,13.848 C31.0800024,13.848 31.1546683,13.8320002 31.2080019,13.8 C31.3680027,13.7146662 31.5573341,13.5493346 31.7760019,13.304 C31.9946697,13.0586654 32.162668,12.8240011 32.2800019,12.6 L33.2080019,12.856 Z M43.8480029,12.6 C43.8480029,12.9200016 43.7840035,13.1813323 43.6560029,13.384 C43.5600024,13.5226674 43.3866708,13.7199987 43.1360029,13.976 C42.8853349,14.2320013 42.6906702,14.4026662 42.5520029,14.488 C42.2853349,14.6586675 42.0133376,14.744 41.7360029,14.744 L39.0800029,14.744 C38.7920014,14.744 38.5146709,14.6586675 38.2480029,14.488 C37.938668,14.295999 37.6080046,13.9600024 37.2560029,13.48 C37.1066688,13.2773323 36.9893366,13.0693344 36.9040029,12.856 L37.8160029,12.6 L37.9280029,12.792 C38.0346701,12.984001 38.1893352,13.1813323 38.3920029,13.384 C38.5946705,13.5866677 38.7653355,13.725333 38.9040029,13.8 C38.9466697,13.8320002 39.0213357,13.848 39.1280029,13.848 L41.6720029,13.848 C41.7466699,13.848 41.8106693,13.8320002 41.8640029,13.8 C42.0026702,13.7359997 42.1813351,13.5973344 42.4000029,13.384 C42.6186706,13.1706656 42.7760024,12.9733342 42.8720029,12.792 C42.904003,12.7279997 42.9200029,12.658667 42.9200029,12.584 L42.9200029,11.608 C42.9200029,11.4373325 42.8720033,11.2800007 42.7760029,11.136 C42.6800024,10.9919993 42.5573369,10.8986669 42.4080029,10.856 L37.9920029,9.656 C37.6933347,9.57066624 37.4533371,9.38666808 37.2720029,9.104 C37.0906686,8.82133192 37.0000029,8.50400176 37.0000029,8.152 L37.0000029,7.16 C37.0000029,6.8399984 37.0640022,6.57866768 37.1920029,6.376 C37.2880033,6.23733264 37.4613349,6.03733464 37.7120029,5.776 C37.9626708,5.51466536 38.1573355,5.34133376 38.2960029,5.256 C38.5626709,5.08533248 38.8346681,5 39.1120029,5 L41.5280029,5 C41.8053376,5 42.0773349,5.08533248 42.3440029,5.256 C42.6533377,5.44800096 42.9840011,5.7839976 43.3360029,6.264 C43.5066704,6.50933456 43.6293358,6.71733248 43.7040029,6.888 L42.7760029,7.16 L42.6640029,6.952 C42.5680024,6.77066576 42.4160039,6.57600104 42.2080029,6.368 C42.0000018,6.15999896 41.8266702,6.01866704 41.6880029,5.944 C41.6346693,5.91199984 41.5653366,5.896 41.4800029,5.896 L39.1920029,5.896 C39.1066691,5.896 39.0373365,5.91199984 38.9840029,5.944 C38.8453355,6.00800032 38.6693373,6.1466656 38.4560029,6.36 C38.2426685,6.5733344 38.0880033,6.77066576 37.9920029,6.952 C37.949336,7.03733376 37.9280029,7.1066664 37.9280029,7.16 L37.9280029,8.088 C37.9280029,8.2480008 37.9760024,8.39733264 38.0720029,8.536 C38.1680033,8.67466736 38.2853355,8.76533312 38.4240029,8.808 L42.8240029,10.024 C43.1333377,10.1093338 43.3813353,10.2933319 43.5680029,10.576 C43.7546705,10.8586681 43.8480029,11.170665 43.8480029,11.512 L43.8480029,12.6 Z" id="DOCS" fill="#FFFFFF"></path>
                </g>
            </g>
            <g id="Keymetrics-blue" fill="#FFFFFF">
                <path d="M47.6135525,23.4713262 L43.3981885,23.4713262 L38.6299899,15.9121864 L44.9875881,9.23835125 L49.0647434,9.23835125 L42.6380409,15.844086 L47.6135525,23.4713262 Z M37.4552164,23.4713262 L39.493794,9.23835125 L36.0385777,9.23835125 L34,23.4713262 L37.4552164,23.4713262 Z M58.4974841,19.0107527 L58.8775579,16.4229391 C59.0848708,14.9928315 58.8084535,14.0053763 58.0828581,13.4605735 C57.3572627,12.9157706 56.1479369,12.6433692 54.4894331,12.6433692 C52.7272727,12.6433692 51.3451862,12.9498208 50.3777256,13.5286738 C49.410265,14.1075269 48.8228782,15.0949821 48.6155652,16.4569892 L48.0627306,20.2706093 C47.717209,22.5519713 49.4793693,23.7096774 53.2801073,23.7096774 C54.7312982,23.7096774 56.1479369,23.5734767 57.5645756,23.3010753 L57.840993,21.2580645 C56.4589064,21.5645161 55.2495807,21.734767 54.1784636,21.734767 C53.00369,21.734767 52.2089903,21.5985663 51.8289165,21.3261649 C51.4488427,21.0537634 51.2760819,20.6111111 51.3797383,20.0322581 L51.517947,19.078853 L58.4974841,19.078853 L58.4974841,19.0107527 Z M55.6642066,17.172043 L51.7598121,17.172043 L51.9671251,15.6397849 C52.0016773,15.2992832 52.1744381,15.0609319 52.4854076,14.8566308 C52.7963771,14.6863799 53.3146595,14.5842294 54.1093593,14.5842294 C54.8349547,14.5842294 55.2841328,14.6863799 55.5605502,14.8566308 C55.8024153,15.0268817 55.9060718,15.2992832 55.8715196,15.6397849 L55.6642066,17.172043 Z M71.0399195,12.8476703 L62.9547132,28 L59.6722576,28 L62.2982221,23.3691756 L59.534049,12.8476703 L63.0583697,12.8476703 L64.4059041,20.3387097 L67.6883596,12.8476703 L71.0399195,12.8476703 Z M86.6574975,23.4713262 L87.7631667,15.6738351 C87.9013754,14.6523297 87.7631667,13.9032258 87.3139886,13.3924731 C86.8648105,12.8817204 85.931902,12.6433692 84.5498155,12.6433692 C83.6169071,12.6433692 82.7876551,12.7455197 82.0620597,12.983871 C81.3364643,13.2222222 80.852734,13.5967742 80.645421,14.0734767 C80.3344515,13.1200717 79.2978866,12.6433692 77.5011741,12.6433692 C75.2898356,12.6433692 74.0114056,13.1541219 73.6658839,14.1415771 L73.8386448,12.8476703 L71.8691714,12.8476703 L70.3488762,23.4713262 L72.3529017,23.4713262 L73.4585709,15.8100358 C73.5622274,15.1290323 73.8040926,14.6523297 74.2532707,14.4139785 C74.6678967,14.1756272 75.4971486,14.0394265 76.6719222,14.0394265 C77.1902046,14.0394265 77.5702784,14.0734767 77.8812479,14.1756272 C78.1922174,14.2777778 78.3995304,14.4139785 78.537739,14.5842294 C78.6413955,14.7544803 78.7104998,14.9587814 78.745052,15.1290323 C78.7796042,15.2992832 78.745052,15.5376344 78.7104998,15.7759857 L77.6048306,23.437276 L79.6088561,23.437276 L80.7145253,15.7759857 C80.8181818,15.0949821 81.060047,14.6523297 81.4055686,14.3799283 C81.7856424,14.1415771 82.54579,14.0053763 83.7205636,14.0053763 C84.238846,14.0053763 84.653472,14.0394265 84.9644415,14.1415771 C85.2754109,14.2437276 85.5172761,14.3799283 85.6209326,14.5501792 C85.7245891,14.7204301 85.7936934,14.9247312 85.8282456,15.0949821 C85.8627977,15.265233 85.8282456,15.5035842 85.7936934,15.7419355 L84.6880242,23.4032258 L86.6574975,23.4032258 L86.6574975,23.4713262 Z M98.577994,18.6021505 L91.3565917,18.6021505 L91.1147266,20.202509 C91.0110701,20.9516129 91.1838309,21.4623656 91.7021134,21.8028674 C92.1858437,22.109319 92.9459913,22.2795699 94.0171084,22.2795699 C95.0536733,22.2795699 96.262999,22.109319 97.7141899,21.7688172 L97.5068769,23.2670251 C96.1247903,23.5734767 94.8118081,23.7096774 93.5679302,23.7096774 C90.2854747,23.7096774 88.7997316,22.6200717 89.1107011,20.4749104 L89.6980879,16.2867384 C89.8708487,14.9928315 90.3891312,14.0734767 91.2183831,13.4946237 C92.047635,12.9498208 93.2915129,12.6774194 94.9500168,12.6774194 C96.5048641,12.6774194 97.6105334,12.9498208 98.2324723,13.4605735 C98.8889634,14.0053763 99.0962764,14.9247312 98.8889634,16.2867384 L98.577994,18.6021505 Z M96.7812814,17.3082437 L97.0231466,15.6397849 C97.1268031,14.9928315 96.9885944,14.5501792 96.6085206,14.311828 C96.2284468,14.0734767 95.6065079,13.937276 94.6735995,13.937276 C93.7752432,13.937276 93.1187521,14.0394265 92.6350218,14.2777778 C92.1858437,14.516129 91.8748742,14.9587814 91.8057699,15.6057348 L91.5639047,17.2741935 L96.7812814,17.2741935 L96.7812814,17.3082437 Z M106.594096,23.5053763 C105.868501,23.6075269 105.108353,23.6756272 104.313653,23.6756272 C102.966119,23.6756272 102.067762,23.437276 101.584032,22.9946237 C101.100302,22.5179211 100.962093,21.6666667 101.169406,20.3727599 L102.067762,14.1415771 L99.649111,14.1415771 L99.8218719,12.8476703 L102.240523,12.8476703 L102.724254,9.54480287 L104.762831,9.54480287 L104.279101,12.8476703 L108.114391,12.8476703 L107.94163,14.1415771 L104.10634,14.1415771 L103.207984,20.4749104 C103.104327,21.2240143 103.173432,21.734767 103.449849,22.0071685 C103.726266,22.2795699 104.279101,22.3817204 105.212009,22.3817204 C105.453875,22.3817204 106.006709,22.3136201 106.835961,22.2114695 L106.594096,23.5053763 Z M114.817511,14.311828 L115.059376,12.609319 L114.091915,12.609319 C113.435424,12.609319 112.744381,12.8136201 112.053338,13.188172 C111.362295,13.5967742 110.947669,14.0394265 110.878564,14.5501792 L111.120429,12.8136201 L109.22006,12.8136201 L107.699765,23.437276 L109.703791,23.437276 L110.774908,15.9802867 C110.878564,15.3333333 111.154982,14.890681 111.60416,14.6523297 C112.08789,14.4139785 112.778933,14.311828 113.67729,14.311828 L114.817511,14.311828 Z M118.169071,11.0770609 L116.165045,11.0770609 L116.476015,9 L118.48004,9 L118.169071,11.0770609 Z M116.40691,23.4713262 L114.402885,23.4713262 L115.92318,12.8476703 L117.927206,12.8476703 L116.40691,23.4713262 Z M126.565247,23.3691756 C125.563234,23.5734767 124.38846,23.6756272 123.075478,23.6756272 C122.418987,23.6756272 121.900704,23.6756272 121.555183,23.6415771 C121.209661,23.6075269 120.795035,23.5394265 120.345857,23.437276 C119.896679,23.3010753 119.551157,23.1308244 119.343844,22.8924731 C119.136531,22.6541219 118.963771,22.3136201 118.860114,21.8709677 C118.756458,21.4283154 118.721905,20.8835125 118.825562,20.202509 L119.378397,16.2867384 C119.447501,15.7078853 119.585709,15.1971326 119.75847,14.7885305 C119.931231,14.3799283 120.138544,14.0053763 120.414961,13.7670251 C120.691379,13.4946237 120.967796,13.2903226 121.244213,13.1200717 C121.520631,12.9498208 121.866152,12.8476703 122.31533,12.7795699 C122.764509,12.7114695 123.144582,12.6774194 123.490104,12.6433692 C123.835626,12.609319 124.284804,12.609319 124.837638,12.609319 C125.874203,12.609319 126.876216,12.7114695 127.843677,12.9498208 L127.636364,14.3799283 C126.530694,14.0734767 125.425025,13.937276 124.38846,13.937276 C123.282791,13.937276 122.522643,14.0734767 122.177122,14.3458781 C121.797048,14.6182796 121.555183,15.1630824 121.451526,16.0143369 L120.829587,20.3387097 C120.725931,21.1218638 120.829587,21.6326165 121.175109,21.8709677 C121.520631,22.1433692 122.280778,22.2455197 123.455552,22.2455197 C124.492117,22.2455197 125.597786,22.109319 126.77256,21.8369176 L126.565247,23.3691756 Z M136.51627,19.7258065 C136.758135,18.0573477 135.756122,17.2401434 133.475679,17.2401434 L132.231801,17.2401434 C130.918819,17.2401434 130.29688,16.8655914 130.400537,16.1505376 L130.538745,15.265233 C130.60785,14.7885305 130.849715,14.4480287 131.264341,14.2437276 C131.678967,14.0394265 132.404562,13.937276 133.475679,13.937276 C134.44314,13.937276 135.548809,14.0394265 136.792687,14.2437276 L137,12.8136201 C135.203287,12.7114695 134.097618,12.6433692 133.752097,12.6433692 C130.538745,12.6433692 128.811137,13.4605735 128.603824,15.1290323 L128.465616,16.1164875 C128.361959,16.9336918 128.53472,17.546595 129.053002,18.0232975 C129.571285,18.5 130.400537,18.7043011 131.506206,18.7043011 L132.715532,18.7043011 C133.406575,18.7043011 133.890305,18.8064516 134.201275,18.9767025 C134.477692,19.1810036 134.581349,19.4874552 134.512244,19.9301075 L134.374036,21.0197133 C134.304931,21.5304659 134.028514,21.9050179 133.544784,22.0752688 C133.061053,22.2455197 132.404562,22.3136201 131.506206,22.3136201 C130.780611,22.3136201 129.571285,22.1774194 127.843677,21.9050179 L127.636364,23.4032258 C128.914794,23.5734767 130.124119,23.6756272 131.298893,23.6756272 C132.819188,23.6756272 133.993962,23.4713262 134.857766,23.0286738 C135.72157,22.5860215 136.239852,21.8028674 136.412613,20.6451613 L136.51627,19.7258065 Z" id="Shape"></path>
                <g id="Group" fill-rule="nonzero">
                    <path d="M9.93103448,11.48125 L21.9310345,2.234375 C22.4482759,1.821875 22.5517241,1.065625 22.137931,0.55 C21.7241379,0.034375 20.9655172,-0.06875 20.4482759,0.34375 L8.44827586,9.590625 C7.93103448,10.003125 7.82758621,10.759375 8.24137931,11.275 C8.65517241,11.75625 9.4137931,11.859375 9.93103448,11.48125 Z" id="Shape"></path>
                    <path d="M20.7931034,6.978125 C21.2068966,7.49375 21.9655172,7.596875 22.4827586,7.184375 L28.6551724,2.440625 C29.1724138,2.028125 29.2758621,1.271875 28.862069,0.75625 C28.4482759,0.240625 27.6896552,0.1375 27.1724138,0.55 L21,5.29375 C20.4827586,5.671875 20.3793103,6.428125 20.7931034,6.978125 Z" id="Shape"></path>
                    <path d="M21.8275862,30.696875 L9.82758621,21.45 C9.31034483,21.0375 8.55172414,21.140625 8.13793103,21.65625 C7.72413793,22.171875 7.82758621,22.928125 8.34482759,23.340625 L20.3448276,32.5875 C20.862069,33 21.6206897,32.896875 22.0344828,32.38125 C22.4482759,31.83125 22.3448276,31.075 21.8275862,30.696875 Z" id="Shape"></path>
                    <path d="M5.93103448,14.50625 C6.44827586,14.09375 6.55172414,13.3375 6.17241379,12.821875 C5.75862069,12.30625 5,12.203125 4.48275862,12.58125 L1.06896552,15.19375 C0.965517241,15.228125 0.862068966,15.296875 0.793103448,15.4 L0.551724138,15.571875 C0.310344828,15.778125 0.172413793,16.0875 0.206896552,16.3625 C0.172413793,16.671875 0.310344828,16.98125 0.551724138,17.153125 L0.793103448,17.325 C0.862068966,17.428125 0.965517241,17.496875 1.06896552,17.53125 L4.48275862,20.14375 C5,20.55625 5.75862069,20.453125 6.17241379,19.903125 C6.5862069,19.3875 6.48275862,18.63125 5.93103448,18.21875 L3.75862069,16.56875 C3.62068966,16.465625 3.62068966,16.225 3.75862069,16.121875 L5.93103448,14.50625 Z" id="Shape"></path>
                    <path d="M17.1724138,24.578125 C17.6896552,24.990625 18.4482759,24.8875 18.862069,24.3375 C19.2758621,23.821875 19.1724138,23.065625 18.6206897,22.653125 L10.6206897,16.603125 C10.4827586,16.5 10.4827586,16.259375 10.6206897,16.15625 L18.6206897,10.071875 C19.137931,9.659375 19.2413793,8.903125 18.862069,8.3875 C18.4482759,7.871875 17.6896552,7.76875 17.1724138,8.146875 L7.93103448,15.19375 C7.82758621,15.228125 7.72413793,15.296875 7.65517241,15.4 L7.4137931,15.571875 C7.17241379,15.778125 7.03448276,16.0875 7.06896552,16.3625 C7.03448276,16.671875 7.17241379,16.98125 7.4137931,17.153125 L7.65517241,17.325 C7.72413793,17.428125 7.82758621,17.496875 7.93103448,17.53125 L17.1724138,24.578125 Z" id="Shape"></path>
                    <path d="M29.3103448,24.715625 L18.6551724,16.6375 C18.5172414,16.534375 18.5172414,16.29375 18.6551724,16.190625 L29.3448276,8.078125 C29.862069,7.665625 29.9655172,6.909375 29.5862069,6.39375 C29.1724138,5.878125 28.4137931,5.775 27.8965517,6.153125 L15.9310345,15.228125 C15.8275862,15.2625 15.7241379,15.33125 15.6551724,15.434375 L15.4137931,15.60625 C15.1724138,15.8125 15.0344828,16.121875 15.0689655,16.396875 C15.0344828,16.70625 15.1724138,17.015625 15.4137931,17.1875 L15.6551724,17.359375 C15.7241379,17.4625 15.8275862,17.53125 15.9310345,17.565625 L27.8275862,26.60625 C28.3448276,27.01875 29.1034483,26.915625 29.5172414,26.365625 C29.9310345,25.85 29.8275862,25.09375 29.3103448,24.715625 Z" id="Shape"></path>
                    <path d="M28.4827586,30.6625 L22.3103448,25.91875 C21.7931034,25.50625 21.0344828,25.609375 20.6206897,26.125 C20.2068966,26.640625 20.3103448,27.396875 20.8275862,27.809375 L27,32.553125 C27.5172414,32.965625 28.2758621,32.8625 28.6896552,32.346875 C29.1034483,31.83125 29,31.075 28.4827586,30.6625 Z" id="Shape"></path>
                </g>
                <path d="M139.5,22 C139.630435,22 139.73913,22.0434783 139.847826,22.1521739 C139.934783,22.2391304 140,22.3695652 140,22.5 C140,22.6304348 139.956522,22.7608696 139.847826,22.8478261 C139.76087,22.9347826 139.630435,23 139.5,23 C139.369565,23 139.23913,22.9565217 139.152174,22.8478261 C139.065217,22.7608696 139,22.6304348 139,22.5 C139,22.3695652 139.043478,22.2608696 139.152174,22.1521739 C139.23913,22.0434783 139.369565,22 139.5,22 Z M139.5,22.9130435 C139.608696,22.9130435 139.717391,22.8695652 139.804348,22.7826087 C139.891304,22.6956522 139.934783,22.6086957 139.934783,22.4782609 C139.934783,22.3695652 139.891304,22.2608696 139.804348,22.173913 C139.717391,22.0869565 139.630435,22.0434783 139.5,22.0434783 C139.391304,22.0434783 139.282609,22.0869565 139.195652,22.173913 C139.108696,22.2608696 139.065217,22.3478261 139.065217,22.4782609 C139.065217,22.5869565 139.108696,22.6956522 139.195652,22.7826087 C139.282609,22.8695652 139.369565,22.9130435 139.5,22.9130435 Z M139.608696,22.5 C139.652174,22.5 139.673913,22.5434783 139.695652,22.5869565 L139.76087,22.7608696 L139.673913,22.7608696 L139.608696,22.5869565 C139.586957,22.5434783 139.565217,22.5217391 139.521739,22.5217391 L139.369565,22.5217391 L139.369565,22.7608696 L139.282609,22.7608696 L139.282609,22.1956522 C139.326087,22.1956522 139.413043,22.1956522 139.521739,22.1956522 C139.608696,22.1956522 139.652174,22.2173913 139.695652,22.2391304 C139.73913,22.2608696 139.73913,22.3043478 139.73913,22.3695652 C139.73913,22.4130435 139.73913,22.4565217 139.717391,22.4782609 C139.695652,22.4782609 139.652174,22.5 139.608696,22.5 Z M139.369565,22.4782609 L139.521739,22.4782609 C139.565217,22.4782609 139.608696,22.4782609 139.630435,22.4565217 C139.652174,22.4347826 139.652174,22.4130435 139.652174,22.3695652 C139.652174,22.326087 139.652174,22.3043478 139.630435,22.2826087 C139.608696,22.2608696 139.565217,22.2608696 139.521739,22.2608696 L139.369565,22.2608696 L139.369565,22.4782609 Z" id="Shape" fill-rule="nonzero"></path>
            </g>
        </g>
    </g>
</svg>